<svg xmlns="http://www.w3.org/2000/svg" width="48" height="48" fill="none" viewBox="0 0 48 48"><path fill="#F7931A" d="M47.282 29.806c-3.205 12.857-16.228 20.682-29.087 17.476C5.342 44.076-2.483 31.053.725 18.197 3.927 5.338 16.95-2.487 29.804.718c12.858 3.206 20.682 16.23 17.477 29.088"/><path fill="#fff" fill-rule="evenodd" d="M34.586 20.58c.477-3.193-1.954-4.91-5.28-6.055l1.08-4.327-2.634-.656-1.05 4.213c-.693-.173-1.404-.336-2.11-.497l1.057-4.24-2.632-.657-1.079 4.325q-.861-.194-1.682-.395l.003-.014-3.631-.906-.701 2.812s1.954.448 1.913.476c1.066.266 1.26.972 1.227 1.532l-1.229 4.928c.074.019.169.046.274.088l-.076-.019-.202-.05-1.722 6.905c-.13.324-.462.81-1.207.626.026.038-1.914-.478-1.914-.478l-1.308 3.014 3.427.855q.564.142 1.114.286.384.101.764.198l-1.09 4.376 2.63.657 1.08-4.33c.719.195 1.416.375 2.099.545L20.63 38.1l2.634.656 1.09-4.368c4.49.85 7.867.508 9.289-3.555 1.145-3.27-.057-5.156-2.42-6.386 1.72-.397 3.017-1.529 3.362-3.867m-6.018 8.438c-.746 3-5.443 1.76-7.592 1.193q-.291-.078-.513-.133l1.446-5.798c.18.045.4.094.648.15 2.222.499 6.776 1.52 6.011 4.588m-5.565-7.279c1.791.478 5.7 1.521 6.38-1.206.695-2.789-3.103-3.63-4.958-4.04-.209-.047-.393-.087-.543-.125l-1.311 5.258q.186.047.431.113" clip-rule="evenodd"/></svg>