<svg xmlns="http://www.w3.org/2000/svg" width="48" height="48" fill="none" viewBox="0 0 48 48"><circle cx="24" cy="24" r="24" fill="#000"/><path fill="url(#paint0_linear_12015_8671)" d="M14.878 29.686a.9.9 0 0 1 .637-.264H37.51a.45.45 0 0 1 .32.77l-4.346 4.344a.9.9 0 0 1-.637.264H10.852a.45.45 0 0 1-.319-.77z"/><path fill="url(#paint1_linear_12015_8671)" d="M14.878 13.463a.93.93 0 0 1 .637-.263H37.51a.45.45 0 0 1 .32.77l-4.346 4.344a.9.9 0 0 1-.637.263H10.852a.45.45 0 0 1-.319-.769z"/><path fill="url(#paint2_linear_12015_8671)" d="M33.484 21.523a.9.9 0 0 0-.637-.264H10.852a.45.45 0 0 0-.319.77l4.345 4.344a.9.9 0 0 0 .637.264H37.51a.45.45 0 0 0 .32-.77z"/><defs><linearGradient id="paint0_linear_12015_8671" x1="-39.313" x2="-39.898" y1="9.119" y2="38.567" gradientUnits="userSpaceOnUse"><stop stop-color="#00FFA3"/><stop offset="1" stop-color="#DC1FFF"/></linearGradient><linearGradient id="paint1_linear_12015_8671" x1="-45.969" x2="-46.554" y1="5.644" y2="35.092" gradientUnits="userSpaceOnUse"><stop stop-color="#00FFA3"/><stop offset="1" stop-color="#DC1FFF"/></linearGradient><linearGradient id="paint2_linear_12015_8671" x1="-42.662" x2="-43.247" y1="7.371" y2="36.819" gradientUnits="userSpaceOnUse"><stop stop-color="#00FFA3"/><stop offset="1" stop-color="#DC1FFF"/></linearGradient></defs></svg>