<svg xmlns="http://www.w3.org/2000/svg" width="48" height="48" fill="none" viewBox="0 0 48 48"><path fill="#2775CA" d="M24 48c13.3 0 24-10.7 24-24S37.3 0 24 0 0 10.7 0 24s10.7 24 24 24"/><path fill="#fff" d="M30.6 27.8c0-3.5-2.1-4.7-6.3-5.2-3-.4-3.6-1.2-3.6-2.6s1-2.3 3-2.3c1.8 0 2.8.6 3.3 2.1.1.3.4.5.7.5h1.6c.4 0 .7-.3.7-.7v-.1c-.4-2.2-2.2-3.9-4.5-4.1V13c0-.4-.3-.7-.8-.8h-1.5c-.4 0-.7.3-.8.8v2.3c-3 .4-4.9 2.4-4.9 4.9 0 3.3 2 4.6 6.2 5.1 2.8.5 3.7 1.1 3.7 2.7s-1.4 2.7-3.3 2.7c-2.6 0-3.5-1.1-3.8-2.6-.1-.4-.4-.6-.7-.6h-1.7c-.4 0-.7.3-.7.7v.1c.4 2.5 2 4.3 5.3 4.8v2.4c0 .4.3.7.8.8h1.5c.4 0 .7-.3.8-.8v-2.4c3-.5 5-2.6 5-5.3"/><path fill="#fff" fill-rule="evenodd" d="M10 19.1c-2.9 7.7 1.1 16.4 8.9 19.2.3.2.6.6.6.9v1.4c0 .2 0 .3-.1.4-.1.4-.5.6-.9.4-5.6-1.8-9.9-6.1-11.7-11.7-3-9.5 2.2-19.6 11.7-22.6.1-.1.3-.1.4-.1.4.1.6.4.6.8v1.4c0 .5-.2.8-.6 1-4.1 1.5-7.4 4.7-8.9 8.9M28.6 7.5c.1-.4.5-.6.9-.4 5.5 1.8 9.9 6.1 11.7 11.8 3 9.5-2.2 19.6-11.7 22.6-.1.1-.3.1-.4.1-.4-.1-.6-.4-.6-.8v-1.4c0-.5.2-.8.6-1 4.1-1.5 7.4-4.7 8.9-8.9 2.9-7.7-1.1-16.4-8.9-19.2-.3-.2-.6-.6-.6-1V7.9c0-.2 0-.3.1-.4" clip-rule="evenodd"/></svg>