<svg xmlns="http://www.w3.org/2000/svg" width="64" height="64" fill="none" viewBox="0 0 64 64"><g clip-path="url(#clip0_12016_9906)"><path fill="#0068FF" d="M32 64c17.673 0 32-14.327 32-32S49.673 0 32 0 0 14.327 0 32s14.327 32 32 32"/><path fill="#0068FF" d="m44.223 30.412-.826-.33c-3.886 8.731-19.344 3.423-20.274 6.02-.155 1.755 8.442.334 14.587.632 1.874.09 2.814 1.503 2.018 3.806l1.568.005c1.808-5.63 7.578-2.757 7.82-4.614-.397-1.222-6.632 0-4.893-5.519"/><path fill="#fff" d="M40.172 39.575c.248-.826.165-1.652-.248-2.147-.414-.496-.992-.826-1.736-.908L23.8 36.354c-.082 0-.165-.082-.247-.082q-.124-.124 0-.248c.082-.165.165-.248.33-.248l14.469-.165c1.736-.082 3.555-1.486 4.216-3.137l.827-2.147c0-.083.083-.165 0-.248-.91-4.21-4.712-7.349-9.177-7.349-4.134 0-7.69 2.643-8.93 6.358a4.52 4.52 0 0 0-2.976-.825c-1.984.165-3.555 1.816-3.803 3.798-.083.495 0 .99.083 1.486-3.225.083-5.87 2.725-5.87 6.028 0 .33 0 .578.082.908 0 .165.166.248.248.248h26.54c.165 0 .33-.083.33-.248zM44.719 30.328h-.414c-.083 0-.165.083-.248.165l-.579 1.982c-.248.825-.165 1.651.248 2.147s.992.825 1.737.908l3.059.165c.082 0 .165.083.248.083q.123.123 0 .247c-.083.166-.166.248-.331.248l-3.142.165c-1.736.083-3.555 1.486-4.216 3.138l-.166.743c-.082.082 0 .248.166.248h10.913q.248 0 .248-.248c.166-.66.33-1.404.33-2.147 0-4.293-3.554-7.844-7.854-7.844"/></g><defs><clipPath id="clip0_12016_9906"><path fill="#fff" d="M0 0h64v64H0z"/></clipPath></defs></svg>