<svg xmlns="http://www.w3.org/2000/svg" width="64" height="64" fill="none" viewBox="0 0 64 64"><g clip-path="url(#clip0_12016_9907)"><path fill="#0068FF" d="M32 64c17.673 0 32-14.327 32-32S49.673 0 32 0 0 14.327 0 32s14.327 32 32 32"/><path fill="#fff" d="m36.453 37.408-2.386-3.658-2.704 3.658 2.704 2.863z"/><path fill="#fff" fill-rule="evenodd" d="M28.658 29.71a3.5 3.5 0 0 1-4.022-5.634 6.044 6.044 0 1 0 4.022 5.634" clip-rule="evenodd"/><path fill="#0068FF" d="M19.753 31.045a1.272 1.272 0 1 0 0-2.545 1.272 1.272 0 0 0 0 2.545"/><path fill="#fff" fill-rule="evenodd" d="M39.636 31.685a2.704 2.704 0 0 0 1.928-4.6 4.62 4.62 0 0 1 5.865 4.442 4.613 4.613 0 1 1-9.22-.248c.415.258.903.406 1.427.406" clip-rule="evenodd"/><path fill="#0068FF" d="M44.406 33.592a1.113 1.113 0 1 0 0-2.227 1.113 1.113 0 0 0 0 2.227"/></g><defs><clipPath id="clip0_12016_9907"><path fill="#fff" d="M0 0h64v64H0z"/></clipPath></defs></svg>