<svg xmlns="http://www.w3.org/2000/svg" width="64" height="64" fill="none" viewBox="0 0 64 64"><g clip-path="url(#clip0_12016_9908)"><path fill="#0068FF" d="M32 64c17.673 0 32-14.327 32-32S49.673 0 32 0 0 14.327 0 32s14.327 32 32 32"/><path fill="#fff" d="M41.3 18.73H29.535v15.858h15.893V22.833c0-2.248-1.856-4.102-4.106-4.102zM25.868 18.73H23.84c-2.25 0-4.107 1.855-4.107 4.103v2.025h6.134zM19.723 28.527h6.133v6.128h-6.133zM39.34 44.405h2.026c2.251 0 4.107-1.855 4.107-4.103V38.33H39.34zM29.535 38.316h6.133v6.128h-6.133zM19.723 38.316v2.025c0 2.249 1.856 4.103 4.106 4.103h2.027v-6.128z"/></g><defs><clipPath id="clip0_12016_9908"><path fill="#fff" d="M0 0h64v64H0z"/></clipPath></defs></svg>