<svg xmlns="http://www.w3.org/2000/svg" width="64" height="64" fill="none" viewBox="0 0 64 64"><g clip-path="url(#clip0_12016_9905)"><path fill="#0068FF" d="M32 64c17.673 0 32-14.327 32-32S49.673 0 32 0 0 14.327 0 32s14.327 32 32 32"/><path fill="#fff" d="m32.281 22.637-2.285 1.258-10.633 5.753c2.646 12.482 12.25 17.746 12.918 18.08.642-.334 10.273-5.573 12.893-18.08l-10.632-5.779z"/><path fill="#fff" fill-opacity=".7" d="m32.283 20.354-2.285 1.258-10.992 5.958c.103.72.231 1.413.36 2.08l10.632-5.752 2.285-1.259 2.26 1.233 10.633 5.779c.128-.668.257-1.362.36-2.08l-10.992-5.985z"/><path fill="#fff" fill-opacity=".5" d="m32.282 18.17-2.26 1.258-11.223 6.087c.051.72.128 1.412.205 2.08l10.992-5.984 2.286-1.232 2.311 1.258 10.941 5.958c.077-.668.18-1.36.231-2.08l-11.249-6.112z"/><path fill="#fff" fill-opacity=".3" d="m32.283 15.756-13.56 7.448q0 1.155.077 2.311l11.223-6.087 2.26-1.232 2.26 1.232 11.223 6.087c.051-.77.051-1.54.051-2.337z"/></g><defs><clipPath id="clip0_12016_9905"><path fill="#fff" d="M0 0h64v64H0z"/></clipPath></defs></svg>