<svg xmlns="http://www.w3.org/2000/svg" width="64" height="64" fill="none" viewBox="0 0 64 64"><g clip-path="url(#clip0_12016_9904)"><path fill="#0068FF" d="M32 64c17.673 0 32-14.327 32-32S49.673 0 32 0 0 14.327 0 32s14.327 32 32 32"/><path fill="#fff" d="M23.678 38.896a5.35 5.35 0 0 1-1.955-4.15l.021-14.245a.146.146 0 0 1 .112-.143l9.6-2.505a3.7 3.7 0 0 1 1.89 0l9.59 2.542a.15.15 0 0 1 .113.146l-.025 14.242a5.34 5.34 0 0 1-1.968 4.144l-8.023 6.562a1.07 1.07 0 0 1-1.353 0z"/><path fill="#0068FF" d="M37.63 25.528a1.01 1.01 0 0 0-1.417.216l-4.8 6.546-3.054-2.454a1.01 1.01 0 0 0-1.408.172 1.02 1.02 0 0 0 .141 1.418l3.877 3.115a1.02 1.02 0 0 0 1.448-.191l5.43-7.398a1.02 1.02 0 0 0-.218-1.424"/></g><defs><clipPath id="clip0_12016_9904"><path fill="#fff" d="M0 0h64v64H0z"/></clipPath></defs></svg>